<svg width="277" height="48" fill="none" xmlns="http://www.w3.org/2000/svg"><g clip-path="url(#clip0_825_1494)"><path d="M18.5512 0C13.3727 5.39549 7.1082 8.60938 0 10.049C0.712959 24.9948 6.92045 37.4641 18.5512 47.1456C30.1986 37.4641 36.3894 24.9761 37.1024 10.049C29.9942 8.60703 23.7296 5.39315 18.5512 0ZM31.1539 30.2054C29.6353 33.2343 27.7579 36.1533 25.5833 38.8522C23.5395 41.3826 21.1749 43.8029 18.5298 46.0571C15.9037 43.8217 13.5225 41.4013 11.4763 38.8522C9.29936 36.1556 7.42428 33.2367 5.90568 30.2054C4.40609 27.1764 3.20356 23.9251 2.35989 20.5801C1.57326 17.4388 1.06469 14.1149 0.860304 10.6973C4.29201 9.93894 7.48131 8.77557 10.3878 7.22364C13.3704 5.63425 16.1081 3.60245 18.5464 1.16337C21.0038 3.60245 23.7415 5.63425 26.7051 7.22364C29.6116 8.77557 32.8199 9.93894 36.1969 10.6973C35.9902 14.1149 35.484 17.4411 34.6973 20.5801C33.8537 23.9415 32.6725 27.1764 31.1515 30.2054H31.1539Z" fill="white"/><path d="M24.9843 10.4188C22.7337 9.218 20.5758 7.77609 18.589 6.11414C16.5999 7.75736 14.4634 9.218 12.1938 10.4188C9.88619 11.6384 7.42886 12.6543 4.84082 13.4291C5.10224 15.5896 5.47773 17.6963 5.98393 19.7094C6.77056 22.8132 7.87802 25.8071 9.26592 28.5949C10.6538 31.4039 12.3982 34.1005 14.4064 36.5934C15.6635 38.164 17.0514 39.6785 18.57 41.1392C20.0696 39.6785 21.4765 38.164 22.7337 36.5934C24.7395 34.0817 26.4672 31.4015 27.8741 28.5949C29.262 25.8047 30.3695 22.8132 31.1561 19.7094C31.6623 17.6776 32.0568 15.5896 32.3373 13.4291C29.7302 12.6543 27.2729 11.636 24.9843 10.4188ZM30.3481 19.5081C29.5781 22.5557 28.492 25.4934 27.1232 28.2274C25.7543 30.9802 24.0479 33.6229 22.0778 36.0784C21.0083 37.408 19.8272 38.7211 18.551 39.9758C17.2748 38.7188 16.0937 37.408 15.0242 36.0784C13.0351 33.6206 11.3478 30.9802 9.97888 28.2274C8.61 25.4747 7.52155 22.537 6.75393 19.5081C6.30476 17.7337 5.96729 15.8869 5.72251 14.0026C8.12281 13.2441 10.4114 12.2844 12.5503 11.1398C14.6511 10.0139 16.6759 8.68197 18.5534 7.16748C20.4285 8.68197 22.4557 10.0115 24.5565 11.1398C26.6954 12.2844 28.984 13.2465 31.3843 14.0026C31.1395 15.8869 30.783 17.7337 30.3529 19.5081H30.3481Z" fill="white"/><path d="M18.5678 20.8938C14.8913 20.8938 11.9277 23.8315 11.9277 27.4339C11.9277 31.0364 14.9103 33.9741 18.5678 33.9741C22.2252 33.9928 25.2078 31.0551 25.2078 27.4339C25.2078 23.8127 22.2252 20.8938 18.5678 20.8938ZM24.2714 25.1072L22.0589 25.8282C21.5527 25.6245 20.4072 24.2013 20.2765 23.6302C20.2765 23.6114 20.2575 23.5927 20.2575 23.574L20.9324 21.8184C22.432 22.427 23.6512 23.6278 24.2714 25.1072ZM18.5511 29.0608C16.7497 29.0608 15.7753 28.7471 15.3808 28.5809C15.4569 28.3398 15.5115 28.0074 15.5306 27.675H16.0177V27.9325C16.0177 28.0613 16.1294 28.1736 16.2625 28.1736C16.3956 28.1736 16.5073 28.0636 16.5073 27.9325V27.675H16.9018V27.9325C16.9018 28.0613 17.0135 28.1736 17.1466 28.1736C17.2797 28.1736 17.3914 28.0636 17.3914 27.9325V27.675H17.8405V27.9325C17.8405 28.0613 17.9522 28.1736 18.0853 28.1736C18.2184 28.1736 18.3301 28.0636 18.3301 27.9325V27.675H18.7793V27.9325C18.7793 28.0613 18.891 28.1736 19.0241 28.1736C19.1571 28.1736 19.2688 28.0636 19.2688 27.9325V27.675H19.718V27.9325C19.718 28.0613 19.8297 28.1736 19.9628 28.1736C20.0959 28.1736 20.2076 28.0636 20.2076 27.9325V27.675H20.6021V27.9325C20.6021 28.0613 20.7138 28.1736 20.8468 28.1736C20.9799 28.1736 21.0916 28.0636 21.0916 27.9325V27.675H21.5788C21.5978 28.0261 21.6359 28.3398 21.7285 28.5809C21.334 28.7471 20.3597 29.0608 18.5582 29.0608H18.5511ZM20.9704 29.2995C20.8397 29.447 20.709 29.5945 20.652 29.6694C20.5023 29.8543 20.0341 30.4442 19.8463 30.9451C19.5279 30.8163 19.0407 30.7602 18.5511 30.7602C18.0616 30.7602 17.5767 30.8163 17.2559 30.9451C17.0682 30.4652 16.6 29.8543 16.4503 29.6694C16.3932 29.5945 16.2815 29.447 16.1318 29.2995C16.6951 29.4283 17.4627 29.5219 18.5321 29.5219C19.6015 29.5219 20.3882 29.4306 20.9704 29.2995ZM21.5693 27.1952H21.0821V26.9377C21.0821 26.8089 20.9704 26.6966 20.8373 26.6966C20.7043 26.6966 20.5926 26.8066 20.5926 26.9377V27.1952H20.1981V26.9377C20.1981 26.8089 20.0864 26.6966 19.9533 26.6966C19.8202 26.6966 19.7085 26.8066 19.7085 26.9377V27.1952H19.2593V26.9377C19.2593 26.8089 19.1476 26.6966 19.0145 26.6966C18.8815 26.6966 18.7698 26.8066 18.7698 26.9377V27.1952H18.3206V26.9377C18.3206 26.8089 18.2089 26.6966 18.0758 26.6966C17.9427 26.6966 17.831 26.8066 17.831 26.9377V27.1952H17.3819V26.9377C17.3819 26.8089 17.2702 26.6966 17.1371 26.6966C17.004 26.6966 16.8923 26.8066 16.8923 26.9377V27.1952H16.4978V26.9377C16.4978 26.8089 16.3861 26.6966 16.253 26.6966C16.1199 26.6966 16.0082 26.8066 16.0082 26.9377V27.1952H15.521C15.502 26.8441 15.464 26.5304 15.3713 26.2893C15.7658 26.1231 16.7402 25.8094 18.5416 25.8094C20.343 25.8094 21.3174 26.1231 21.7119 26.2893C21.6359 26.5304 21.5812 26.8628 21.5622 27.1952H21.5693ZM16.1484 25.5683C16.2792 25.4209 16.4099 25.2734 16.4669 25.1985C16.6166 25.0136 17.0848 24.4237 17.2725 23.9228C17.9095 24.1802 19.2237 24.1802 19.8606 23.9228C20.0483 24.4026 20.5165 25.0136 20.6662 25.1985C20.7233 25.2734 20.835 25.4209 20.9847 25.5683C20.4024 25.4396 19.6158 25.346 18.5844 25.346C17.553 25.346 16.7283 25.4372 16.1461 25.5683H16.1484ZM18.5678 21.3573C19.2237 21.3573 19.863 21.4673 20.4619 21.6522L19.8059 23.4078C19.7869 23.4078 19.7869 23.4265 19.7679 23.4265C19.3354 23.684 17.7787 23.684 17.3486 23.4265C17.3296 23.4265 17.3296 23.4078 17.3106 23.4078L16.6737 21.6522C17.2749 21.4673 17.9118 21.3573 18.5678 21.3573ZM16.2055 21.8371L16.8614 23.5927C16.8614 23.6114 16.8424 23.6302 16.8424 23.6489C16.7117 24.2224 15.5662 25.6245 15.06 25.8469L12.8665 25.1259C13.4844 23.6489 14.7035 22.4481 16.2055 21.8371ZM12.3793 27.4527C12.3793 26.7879 12.491 26.1605 12.6787 25.5683L14.8366 26.2893C14.8556 26.308 14.8556 26.3267 14.8746 26.3455C15.1194 26.7153 15.1194 28.1549 14.8746 28.5435C14.8556 28.5622 14.8366 28.5809 14.8366 28.5996L12.6787 29.3393C12.491 28.7471 12.3793 28.1198 12.3793 27.455V27.4527ZM12.8475 29.763L15.06 29.042C15.5662 29.2457 16.7117 30.6689 16.8424 31.24C16.8424 31.2588 16.8614 31.2775 16.8614 31.2962L16.1865 33.0518C14.6869 32.4432 13.4677 31.2424 12.8475 29.763ZM18.5487 33.5129C17.8928 33.5129 17.2535 33.4029 16.6547 33.218L17.3106 31.4624C17.3296 31.4624 17.3296 31.4437 17.3486 31.4437C17.7811 31.1862 19.3378 31.1862 19.7679 31.4437C19.7869 31.4437 19.7869 31.4624 19.8059 31.4624L20.4428 33.218C19.8416 33.4029 19.2047 33.5129 18.5487 33.5129ZM20.9134 33.0518L20.2575 31.2962C20.2575 31.2775 20.2765 31.2588 20.2765 31.24C20.4072 30.6665 21.5527 29.2621 22.0589 29.042L24.2524 29.763C23.6345 31.24 22.4154 32.4408 20.9134 33.0518ZM22.2633 28.5809C22.2442 28.5622 22.2442 28.5435 22.2252 28.5247C21.9805 28.1549 21.9805 26.7153 22.2252 26.3267C22.2442 26.308 22.2633 26.2893 22.2633 26.2706L24.4211 25.5309C24.6089 26.1231 24.7206 26.7504 24.7206 27.4152C24.7206 28.08 24.6089 28.7073 24.4211 29.2995L22.2633 28.5786V28.5809Z" fill="white"/><path d="M11.048 23.3703C10.9554 23.3703 10.8793 23.3142 10.8223 23.2041V14.9459C10.8223 14.871 10.8603 14.7984 10.934 14.7422L12.4336 13.8551C12.4716 13.8363 12.5096 13.8176 12.5452 13.8176C12.6023 13.8176 12.676 13.8551 12.714 13.8925C12.752 13.93 12.771 13.9838 12.771 14.04V16.2754L13.0705 16.0905C14.5154 15.2408 15.4708 12.8954 15.5468 12.1182C15.5468 12.0433 15.6038 11.9895 15.6585 11.952L17.9661 10.6037C18.0041 10.585 18.0422 10.5663 18.0778 10.5663C18.1539 10.5663 18.2275 10.6037 18.2656 10.6763C18.3036 10.7138 18.3036 10.7676 18.3036 10.8238C18.1729 11.8397 17.5169 13.6678 16.7279 14.7961C16.11 15.6645 15.4161 16.4229 15.2284 16.6055L17.5169 18.766C17.574 18.8222 17.593 18.876 17.593 18.9509C17.593 19.061 17.5003 19.1546 17.3862 19.1546C16.7493 19.2459 16.1291 19.3957 15.5302 19.6157C15.5112 19.6345 15.4731 19.6345 15.4541 19.6345C15.3971 19.6345 15.3424 19.6157 15.3044 19.5783L13.9355 18.3026C13.7858 18.1551 13.579 18.0802 13.3533 18.0802C13.2035 18.0802 13.0538 18.1176 12.9207 18.1902L12.752 18.2815V21.2379C12.752 21.2941 12.733 21.3666 12.676 21.4041C12.0937 21.9401 11.6065 22.5674 11.212 23.2322C11.212 23.3235 11.1193 23.361 11.0433 23.361L11.048 23.3703Z" fill="white"/><path d="M25.8852 23.0754C25.8091 23.0754 25.7355 23.038 25.6974 22.9654C25.1912 22.1906 24.5543 21.4884 23.8223 20.9149C23.7843 20.8774 23.7463 20.84 23.7463 20.7861L23.5015 19.494C22.8646 19.068 22.1897 18.7356 21.4767 18.4968L21.327 19.3091C21.308 19.3653 21.27 19.4191 21.2153 19.4566C21.1773 19.4753 21.1392 19.494 21.1036 19.494C21.0846 19.494 21.0656 19.494 21.0275 19.4753C20.595 19.3465 20.1649 19.2529 19.7157 19.1991C19.604 19.1804 19.5089 19.0703 19.528 18.958L20.0912 13.2114C19.9795 13.0826 19.3212 12.3055 19.2285 11.0859C19.2285 10.9947 19.2665 10.9198 19.3402 10.8823C19.3782 10.8636 19.4163 10.8448 19.4519 10.8448C19.4876 10.8448 19.528 10.8636 19.5636 10.8823L24.1598 13.5601C24.2715 13.6351 24.3476 13.7451 24.3856 13.8551L26.0919 22.7969C26.1109 22.9069 26.0539 23.0005 25.9422 23.0543C25.9422 23.0731 25.9042 23.0731 25.8852 23.0731V23.0754ZM21.7571 16.8677C22.1897 16.9964 22.6769 17.1626 23.107 17.3475L22.6388 14.7984C22.6198 14.6697 22.5081 14.576 22.3774 14.576C22.2467 14.576 22.1326 14.6673 22.116 14.7984L21.7595 16.8677H21.7571Z" fill="white"/></g><line x1="52.5996" y1="2.18557e-08" x2="52.5996" y2="47.1479" stroke="white"/><path d="M98.9267 14.5044C98.9252 22.5271 98.9267 30.6983 98.9267 38.7289C98.908 38.943 98.7439 39.118 98.5298 39.1415C96.1572 39.1149 93.7252 39.2806 91.7011 38.9242C88.2329 38.3131 86.1073 36.2391 84.4177 33.8321C83.7378 32.8615 83.1095 31.8393 82.4531 30.8359C80.5009 27.8584 78.5378 24.8044 76.5935 21.8597V38.0349C76.5935 38.2865 76.6091 38.5507 76.6076 38.8039C76.5654 38.9805 76.4184 39.1212 76.2309 39.1477H74.1131C73.2831 39.1477 72.4688 39.1853 71.7061 39.0915C70.301 38.9164 69.1616 38.3428 68.327 37.5473C67.9128 37.1503 67.5736 36.6282 67.3626 36.0484C67.2501 35.7467 67.1657 35.4185 67.1297 35.0481C67.0938 34.6839 67.1 34.276 67.1 33.8524V9.65454C67.1141 9.43728 67.2813 9.26066 67.4986 9.23252H71.9702C73.591 9.23252 75.0649 9.38101 76.3497 9.70141C78.9301 10.3469 80.7901 11.6942 82.2171 13.5416C82.9251 14.4528 83.4877 15.4938 84.0832 16.5347C85.8306 19.6122 87.6734 22.6991 89.4145 25.7547V9.6561C89.4286 9.43885 89.5958 9.26222 89.8115 9.23409H93.1219C93.5345 9.23409 93.9456 9.21535 94.3394 9.2466C95.8352 9.36383 96.8527 10.0171 97.6701 10.8393C98.0906 11.2597 98.4172 11.7489 98.6438 12.3241C98.7626 12.6273 98.8548 12.9415 98.897 13.3088C98.9346 13.6698 98.9252 14.084 98.9252 14.5075L98.9267 14.5044Z" fill="white"/><path d="M116.622 10.1155V38.7193C116.618 38.9616 116.421 39.1554 116.174 39.1554L112.871 39.157C112.234 39.157 111.663 39.1335 111.141 39.0163C109.639 38.6865 108.482 37.8816 107.79 36.7516C107.545 36.3483 107.368 35.9263 107.257 35.4105C107.148 34.901 107.165 34.3196 107.165 33.6319C107.163 28.6945 107.165 23.6148 107.165 18.6461C105.907 18.7774 104.597 18.9275 103.326 19.0682V11.172C103.336 10.9501 103.509 10.7719 103.725 10.7453H103.733C103.747 10.7453 103.759 10.7438 103.775 10.7438C107.879 10.2405 111.996 9.76224 116.141 9.26053C116.155 9.25897 116.171 9.25584 116.188 9.25427C116.435 9.25584 116.633 9.45746 116.633 9.70441C116.633 9.85758 116.625 10.0061 116.625 10.1123L116.622 10.1155Z" fill="white"/><path d="M165.348 39.1602H156.149V24.1635L148.207 36.3703H145.628L137.687 24.1635V39.1602H128.487V9.23401H137.74L146.898 23.1882L156.055 9.23401H165.348V39.1602ZM157.346 37.9629H164.151V10.4328H156.7L146.898 25.3717L137.095 10.4328H129.686V37.9629H136.491V20.1279L146.28 35.173H147.559L157.348 20.1279V37.9629H157.346Z" fill="white"/><path d="M183.586 39.7353C173.446 39.7353 167.146 33.6241 167.146 23.7868C167.146 19.2026 168.685 15.3593 171.597 12.671C174.498 9.99361 178.644 8.57757 183.586 8.57757C188.528 8.57757 192.655 9.99361 195.56 12.671C198.483 15.364 200.027 19.2073 200.027 23.7868C200.027 33.6241 193.727 39.7353 183.586 39.7353ZM183.586 9.77479C174.184 9.77479 168.343 15.1436 168.343 23.7868C168.343 28.3007 169.753 32.0455 172.417 34.6166C175.078 37.1814 178.94 38.5381 183.585 38.5381C188.23 38.5381 192.073 37.1814 194.738 34.6166C197.414 32.0408 198.828 28.296 198.828 23.7868C198.828 15.1436 192.988 9.77479 183.585 9.77479H183.586ZM183.586 32.1424C178.636 32.1424 175.682 29.0962 175.682 23.9916C175.682 18.8869 178.563 16.1283 183.586 16.1283C188.61 16.1283 191.49 18.9948 191.49 23.9916C191.49 26.3579 190.818 28.36 189.548 29.7823C188.169 31.3266 186.107 32.1424 183.586 32.1424ZM183.586 17.3271C178.044 17.3271 176.88 20.9516 176.88 23.9931C176.88 28.4116 179.324 30.9452 183.586 30.9452C187.849 30.9452 190.293 28.4116 190.293 23.9931C190.293 18.1929 186.092 17.3271 183.586 17.3271ZM187.101 7.68199H179.018L183.832 0H193.813L187.103 7.68199H187.101ZM181.181 6.48475H186.558L191.175 1.19724H184.493L181.181 6.48475Z" fill="white"/><path d="M219.644 39.1602H210.238V17.6959H200.265V9.23401H229.616V17.6959H219.642V39.1602H219.644ZM211.435 37.9629H218.445V16.4987H228.418V10.4328H201.462V16.4987H211.435V37.9629Z" fill="white"/><path d="M241.56 39.1602H232.154V9.23401H241.56V39.1602ZM233.352 37.9629H240.361V10.4328H233.352V37.9629Z" fill="white"/><path d="M258.483 39.1601H246.722V26.3969H243.973V21.7111H246.722V9.23547H258.483C263.904 9.23547 267.795 10.0763 270.729 11.8847C274.629 14.2854 276.606 18.4148 276.606 24.1571C276.606 29.8995 274.629 34.046 270.732 36.4702C267.82 38.2817 263.813 39.1616 258.483 39.1616V39.1601ZM247.919 37.9628H258.483C263.583 37.9628 267.383 37.1423 270.099 35.4527C273.672 33.2302 275.409 29.5353 275.409 24.1571C275.409 18.779 273.672 15.1029 270.102 12.9038C267.402 11.2408 263.602 10.4327 258.483 10.4327H247.919V22.9083H245.17V25.1996H247.919V37.9628ZM259.305 31.9782H254.931V25.1996H259.035V22.9083H254.931V16.4158H259.305C262.209 16.4158 264.344 16.9972 265.832 18.1944C267.427 19.4792 268.236 21.4844 268.236 24.1556C268.236 29.3462 265.232 31.9782 259.307 31.9782H259.305ZM256.128 30.781H259.305C264.58 30.781 267.037 28.6757 267.037 24.1571C267.037 21.8346 266.397 20.1888 265.081 19.1291C263.815 18.11 261.925 17.6145 259.305 17.6145H256.128V21.7111H260.232V26.3969H256.128V30.781Z" fill="white"/><defs><clipPath id="clip0_825_1494"><rect width="37.1" height="47.1479" fill="white"/></clipPath></defs></svg>